<svg height="315.75" viewBox="0 0 657 315.75" width="657" xmlns="http://www.w3.org/2000/svg"><path d="m0 2.75h657v313h-657z" fill="#fff"/><path d="m73.5 49.25h504" fill="none" stroke="#000" stroke-width="3"/><path d="m73.5 264.25h504" fill="none" stroke="#000" stroke-width="3"/><path d="m325.5 49.048v215" fill="none" stroke="#000" stroke-width="3"/><path d="m197.74 60.377v-22.255h70.739v22.255z" fill="#fff"/><path d="m197.74 60.377v-22.255h70.739v22.255z" fill="none" stroke="#000" stroke-width="2"/><path d="m380.993 60.377v-22.255h70.738v22.255z" fill="#fff"/><path d="m380.993 60.377v-22.255h70.738v22.255z" fill="none" stroke="#000" stroke-width="2"/><path d="m314.372 121.679h22.256v70.738h-22.256z" fill="#fff"/><path d="m314.372 121.679h22.256v70.738h-22.256z" fill="none" stroke="#000" stroke-width="2"/><text transform="translate(33.738 156.75)"><tspan fill="#656565" font-family="Avenir-Medium" font-size="25" x="-17.6" y="7.5">Vin</tspan></text><text transform="translate(624.238 159.25)"><tspan fill="#656565" font-family="Avenir-Medium" font-size="25" x="-26.188" y="5">Vout</tspan></text><text transform="translate(358.819 156.25)"><tspan fill="#656565" font-family="Avenir-Medium" font-size="25" x="-14.587" y="7.5">R2</tspan></text><text transform="translate(232.61 17.5)"><tspan fill="#656565" font-family="Avenir-Medium" font-size="25" x="-14.587" y="7.5">R1</tspan></text><text transform="translate(415.862 17.5)"><tspan fill="#656565" font-family="Avenir-Medium" font-size="25" x="-14.587" y="7.5">R1</tspan></text><path d="m67.936 54.814c-3.073 0-5.564-2.491-5.564-5.564s2.491-5.564 5.564-5.564 5.564 2.491 5.564 5.564-2.491 5.564-5.564 5.564z" fill="#fff"/><path d="m67.936 54.814c-3.073 0-5.564-2.491-5.564-5.564s2.491-5.564 5.564-5.564 5.564 2.491 5.564 5.564-2.491 5.564-5.564 5.564z" fill="none" stroke="#000" stroke-width="3"/><path d="m325.5 267.147c-1.668 0-3.021-1.297-3.021-2.897s1.353-2.897 3.021-2.897 3.021 1.297 3.021 2.897-1.353 2.897-3.021 2.897z"/><path d="m325.5 267.147c-1.668 0-3.021-1.297-3.021-2.897s1.353-2.897 3.021-2.897 3.021 1.297 3.021 2.897-1.353 2.897-3.021 2.897z" fill="none" stroke="#000" stroke-width="3"/><path d="m325.5 52.147c-1.668 0-3.021-1.297-3.021-2.897s1.353-2.897 3.021-2.897 3.021 1.297 3.021 2.897-1.353 2.897-3.021 2.897z"/><path d="m325.5 52.147c-1.668 0-3.021-1.297-3.021-2.897s1.353-2.897 3.021-2.897 3.021 1.297 3.021 2.897-1.353 2.897-3.021 2.897z" fill="none" stroke="#000" stroke-width="3"/><path d="m67.936 269.814c-3.073 0-5.564-2.491-5.564-5.564s2.491-5.564 5.564-5.564 5.564 2.491 5.564 5.564-2.491 5.564-5.564 5.564z" fill="#fff"/><path d="m67.936 269.814c-3.073 0-5.564-2.491-5.564-5.564s2.491-5.564 5.564-5.564 5.564 2.491 5.564 5.564-2.491 5.564-5.564 5.564z" fill="none" stroke="#000" stroke-width="3"/><path d="m583.064 54.814c-3.073 0-5.564-2.491-5.564-5.564s2.491-5.564 5.564-5.564 5.564 2.491 5.564 5.564-2.491 5.564-5.564 5.564z" fill="#fff"/><path d="m583.064 54.814c-3.073 0-5.564-2.491-5.564-5.564s2.491-5.564 5.564-5.564 5.564 2.491 5.564 5.564-2.491 5.564-5.564 5.564z" fill="none" stroke="#000" stroke-width="3"/><path d="m583.064 269.814c-3.073 0-5.564-2.491-5.564-5.564s2.491-5.564 5.564-5.564 5.564 2.491 5.564 5.564-2.491 5.564-5.564 5.564z" fill="#fff"/><path d="m583.064 269.814c-3.073 0-5.564-2.491-5.564-5.564s2.491-5.564 5.564-5.564 5.564 2.491 5.564 5.564-2.491 5.564-5.564 5.564z" fill="none" stroke="#000" stroke-width="3"/><g stroke="#de787a" stroke-width="5"><path d="m67.781 252.719v-179.542" fill="none"/><path d="m67.781 73.177 5.4 3.6-5.4-14.4-5.4 14.4z" fill="#de787a"/><path d="m583.064 252.719v-179.542" fill="none"/><path d="m583.064 73.177 5.4 3.6-5.4-14.4-5.4 14.4z" fill="#de787a"/></g></svg>